<svg xmlns="http://www.w3.org/2000/svg" viewBox="0 0 256 256" role="img" aria-label="PoleskiPiano">
  <rect x="18" y="18" width="220" height="220" rx="50" fill="#fffcf0"/>
  <rect x="36" y="66" width="184" height="124" rx="24" fill="#100f0f"/>
  <clipPath id="keys">
    <rect x="52" y="92" width="152" height="80" rx="7"/>
  </clipPath>
  <g clip-path="url(#keys)">
    <rect x="52" y="92" width="22" height="80" fill="#efb8aa"/>
    <rect x="74" y="92" width="22" height="80" fill="#efc194"/>
    <rect x="96" y="92" width="22" height="80" fill="#ead077"/>
    <rect x="118" y="92" width="22" height="80" fill="#cbd78a"/>
    <rect x="140" y="92" width="22" height="80" fill="#9fd3ce"/>
    <rect x="162" y="92" width="22" height="80" fill="#a8c8df"/>
    <rect x="184" y="92" width="20" height="80" fill="#c9bce7"/>
    <g opacity="0.32" stroke="#100f0f" stroke-width="1">
      <path d="M74 92v80"/>
      <path d="M96 92v80"/>
      <path d="M118 92v80"/>
      <path d="M140 92v80"/>
      <path d="M162 92v80"/>
      <path d="M184 92v80"/>
    </g>
  </g>
  <g>
    <path d="M67 88h15v58a7 7 0 0 1-7 7h-1a7 7 0 0 1-7-7V88Z" fill="#153f3b"/>
    <path d="M89 88h15v58a7 7 0 0 1-7 7h-1a7 7 0 0 1-7-7V88Z" fill="#163763"/>
    <path d="M133 88h15v58a7 7 0 0 1-7 7h-1a7 7 0 0 1-7-7V88Z" fill="#2e1b57"/>
    <path d="M155 88h15v58a7 7 0 0 1-7 7h-1a7 7 0 0 1-7-7V88Z" fill="#571a16"/>
    <path d="M177 88h15v58a7 7 0 0 1-7 7h-1a7 7 0 0 1-7-7V88Z" fill="#54240f"/>
  </g>
  <rect x="36" y="66" width="184" height="124" rx="24" fill="none" stroke="#100f0f" stroke-width="10"/>
</svg>
